<?xml version="1.0" standalone="no"?>
<!DOCTYPE svg PUBLIC "-//W3C//DTD SVG 20010904//EN"
 "http://www.w3.org/TR/2001/REC-SVG-20010904/DTD/svg10.dtd">
<svg version="1.0" xmlns="http://www.w3.org/2000/svg"
 width="512.000000pt" height="512.000000pt" viewBox="0 0 512.000000 512.000000"
 preserveAspectRatio="xMidYMid meet">
<metadata>
Created by potrace 1.14, written by Peter Selinger 2001-2017
</metadata>
<g transform="translate(0.000000,512.000000) scale(0.100000,-0.100000)"
fill="#000000" stroke="none">
<path d="M1610 5113 c-144 -24 -300 -121 -387 -241 -36 -50 -83 -153 -98 -217
-21 -88 -21 -4100 0 -4188 39 -167 152 -315 295 -390 147 -77 62 -72 1135 -72
1052 0 999 -3 1125 61 119 61 207 149 268 269 66 129 62 6 62 2235 0 1330 -4
2037 -10 2068 -40 185 -156 334 -325 417 -49 24 -115 48 -145 54 -53 10 -1863
13 -1920 4z m1953 -191 c110 -45 207 -142 246 -247 27 -73 41 -235 20 -236
-18 -1 -2531 -1 -2543 0 -13 1 1 170 19 221 48 135 158 237 297 275 44 11 203
13 978 12 l925 -2 58 -23z m277 -2362 l0 -1706 -1280 0 -1280 0 0 1701 c0 936
2 1704 5 1707 3 2 579 4 1280 4 l1275 0 0 -1706z m-2 -1935 c11 -211 -138
-404 -344 -445 -29 -5 -415 -9 -946 -9 -778 0 -903 2 -948 15 -142 42 -247
139 -295 274 -16 44 -31 190 -22 213 3 9 299 12 1278 11 l1274 -1 3 -58z"/>
<path d="M1620 4695 l0 -85 85 0 85 0 0 85 0 85 -85 0 -85 0 0 -85z"/>
<path d="M1967 4773 c-2 -5 -4 -43 -5 -85 l0 -77 250 -3 c158 -2 252 1 257 7
6 8 7 77 2 148 -1 16 -20 17 -250 17 -138 0 -252 -3 -254 -7z"/>
<path d="M2507 3918 c-79 -17 -145 -71 -180 -148 -18 -39 -21 -67 -22 -207 -1
-90 -3 -165 -6 -167 -2 -2 -141 -38 -309 -80 -168 -42 -315 -81 -328 -88 -32
-17 -45 -71 -41 -181 6 -151 -19 -141 367 -145 l317 -3 0 -214 c-1 -118 -4
-217 -8 -221 -4 -4 -83 -23 -175 -41 -193 -38 -215 -46 -232 -78 -11 -21 -16
-126 -11 -228 1 -10 12 -29 26 -42 l24 -25 631 0 631 0 24 25 c19 18 25 36 26
72 5 174 -2 211 -45 230 -11 6 -97 25 -191 43 -93 19 -174 37 -180 42 -5 5 -9
99 -10 223 l0 214 317 3 c386 4 361 -6 367 145 3 105 -8 162 -37 180 -15 9
-157 48 -247 68 -66 14 -391 97 -394 101 -3 2 -5 77 -6 167 -2 139 -5 169 -22
207 -50 111 -169 173 -286 148z m114 -194 l24 -25 0 -646 0 -646 -29 -94 c-27
-86 -31 -93 -55 -93 -24 0 -29 7 -56 93 l-30 94 0 646 0 646 24 25 c34 36 88
36 122 0z m-317 -571 c-1 -32 -2 -64 -3 -70 -1 -10 -59 -13 -256 -13 -250 0
-302 7 -217 29 71 19 167 43 187 48 48 10 66 15 170 42 61 15 113 27 116 25 3
-2 4 -29 3 -61z m1024 -63 c1 0 2 -4 2 -10 0 -12 -510 -14 -511 -2 -3 29 -5
128 -3 133 2 4 118 -22 256 -57 139 -35 254 -64 256 -64z m-988 -826 c6 -14
10 -30 10 -35 0 -5 -64 -9 -150 -9 -82 0 -150 4 -150 8 0 8 112 32 220 49 19
3 37 7 39 9 11 10 22 2 31 -22z m606 -5 c60 -11 113 -25 119 -30 5 -5 -49 -9
-143 -9 -88 0 -152 4 -152 9 0 5 5 22 10 36 8 22 15 26 34 21 12 -3 72 -15
132 -27z"/>
<path d="M1450 2475 l0 -255 85 0 85 0 0 100 c1 55 1 156 1 225 0 69 0 139 -1
155 l0 30 -85 0 -85 0 0 -255z"/>
<path d="M3500 2673 c-1 -54 -1 -348 0 -420 l0 -33 85 0 85 0 0 255 0 255 -85
0 -85 0 0 -57z"/>
<path d="M1450 1965 c0 -47 3 -85 8 -86 4 -1 41 -1 82 -2 l75 -1 3 87 3 87
-86 0 -85 0 0 -85z"/>
<path d="M3499 2013 c-2 -21 -2 -60 1 -87 l5 -50 83 0 82 -1 0 88 0 87 -84 0
-84 0 -3 -37z"/>
<path d="M1964 1791 l1 -86 70 0 c100 -1 101 0 98 87 -1 40 -2 76 -2 79 -1 3
-39 6 -85 6 l-83 0 1 -86z"/>
<path d="M2477 1866 c-2 -6 -3 -83 -3 -171 l1 -159 78 -1 c43 0 82 4 86 10 4
5 7 82 7 170 l-1 160 -82 1 c-53 1 -83 -2 -86 -10z"/>
<path d="M2989 1867 c0 -7 -2 -45 -2 -85 -2 -70 -1 -72 23 -73 26 -1 131 -1
141 0 4 1 6 38 5 84 l-1 82 -82 2 c-57 1 -83 -3 -84 -10z"/>
<path d="M1962 1465 c0 -105 -4 -101 88 -101 89 0 82 -6 82 81 0 100 8 91 -86
91 l-84 0 0 -71z"/>
<path d="M2989 1516 c0 -12 -2 -43 -3 -71 -4 -77 1 -81 86 -79 40 1 76 2 80 3
3 1 6 38 5 83 l-2 83 -82 0 c-77 1 -83 0 -84 -19z"/>
<path d="M2476 1286 c1 -45 2 -84 3 -87 0 -3 37 -5 81 -5 92 1 89 -3 86 101
l-1 70 -86 0 -85 1 2 -80z"/>
<path d="M2390 425 l0 -85 170 0 170 0 0 85 0 85 -170 0 -170 0 0 -85z"/>
</g>
</svg>
